<?xml version="1.0" encoding="UTF-8"?>
<svg xmlns="http://www.w3.org/2000/svg" xmlns:xlink="http://www.w3.org/1999/xlink" width="100px" height="100px" viewBox="0 0 100 100" version="1.1">
<defs>
<linearGradient id="linear0" gradientUnits="userSpaceOnUse" x1="11" y1="24.125" x2="11" y2="27.956" spreadMethod="reflect" gradientTransform="matrix(1.5625,0,0,1.5625,0,0)">
<stop offset="0" style="stop-color:rgb(42.745098%,78.039216%,100%);stop-opacity:1;"/>
<stop offset="1" style="stop-color:rgb(90.196078%,67.058824%,100%);stop-opacity:1;"/>
</linearGradient>
<linearGradient id="linear1" gradientUnits="userSpaceOnUse" x1="11" y1="30.5" x2="11" y2="33.761" spreadMethod="reflect" gradientTransform="matrix(1.5625,0,0,1.5625,0,0)">
<stop offset="0" style="stop-color:rgb(42.745098%,78.039216%,100%);stop-opacity:1;"/>
<stop offset="1" style="stop-color:rgb(90.196078%,67.058824%,100%);stop-opacity:1;"/>
</linearGradient>
<linearGradient id="linear2" gradientUnits="userSpaceOnUse" x1="11" y1="36.188" x2="11" y2="39.743" spreadMethod="reflect" gradientTransform="matrix(1.5625,0,0,1.5625,0,0)">
<stop offset="0" style="stop-color:rgb(42.745098%,78.039216%,100%);stop-opacity:1;"/>
<stop offset="1" style="stop-color:rgb(90.196078%,67.058824%,100%);stop-opacity:1;"/>
</linearGradient>
<linearGradient id="linear3" gradientUnits="userSpaceOnUse" x1="32" y1="7.5" x2="32" y2="56.684" spreadMethod="reflect" gradientTransform="matrix(1.5625,0,0,1.5625,0,0)">
<stop offset="0" style="stop-color:rgb(10.196078%,42.745098%,100%);stop-opacity:1;"/>
<stop offset="1" style="stop-color:rgb(78.431373%,13.333333%,100%);stop-opacity:1;"/>
</linearGradient>
<linearGradient id="linear4" gradientUnits="userSpaceOnUse" x1="28" y1="7.5" x2="28" y2="56.684" spreadMethod="reflect" gradientTransform="matrix(1.5625,0,0,1.5625,0,0)">
<stop offset="0" style="stop-color:rgb(10.196078%,42.745098%,100%);stop-opacity:1;"/>
<stop offset="1" style="stop-color:rgb(78.431373%,13.333333%,100%);stop-opacity:1;"/>
</linearGradient>
<linearGradient id="linear5" gradientUnits="userSpaceOnUse" x1="40" y1="7.5" x2="40" y2="56.684" spreadMethod="reflect" gradientTransform="matrix(1.5625,0,0,1.5625,0,0)">
<stop offset="0" style="stop-color:rgb(10.196078%,42.745098%,100%);stop-opacity:1;"/>
<stop offset="1" style="stop-color:rgb(78.431373%,13.333333%,100%);stop-opacity:1;"/>
</linearGradient>
<linearGradient id="linear6" gradientUnits="userSpaceOnUse" x1="42" y1="7.5" x2="42" y2="56.684" spreadMethod="reflect" gradientTransform="matrix(1.5625,0,0,1.5625,0,0)">
<stop offset="0" style="stop-color:rgb(10.196078%,42.745098%,100%);stop-opacity:1;"/>
<stop offset="1" style="stop-color:rgb(78.431373%,13.333333%,100%);stop-opacity:1;"/>
</linearGradient>
<linearGradient id="linear7" gradientUnits="userSpaceOnUse" x1="34" y1="7.5" x2="34" y2="56.684" spreadMethod="reflect" gradientTransform="matrix(1.5625,0,0,1.5625,0,0)">
<stop offset="0" style="stop-color:rgb(10.196078%,42.745098%,100%);stop-opacity:1;"/>
<stop offset="1" style="stop-color:rgb(78.431373%,13.333333%,100%);stop-opacity:1;"/>
</linearGradient>
<linearGradient id="linear8" gradientUnits="userSpaceOnUse" x1="42" y1="7.5" x2="42" y2="56.684" spreadMethod="reflect" gradientTransform="matrix(1.5625,0,0,1.5625,0,0)">
<stop offset="0" style="stop-color:rgb(10.196078%,42.745098%,100%);stop-opacity:1;"/>
<stop offset="1" style="stop-color:rgb(78.431373%,13.333333%,100%);stop-opacity:1;"/>
</linearGradient>
<linearGradient id="linear9" gradientUnits="userSpaceOnUse" x1="34" y1="7.5" x2="34" y2="56.684" spreadMethod="reflect" gradientTransform="matrix(1.5625,0,0,1.5625,0,0)">
<stop offset="0" style="stop-color:rgb(10.196078%,42.745098%,100%);stop-opacity:1;"/>
<stop offset="1" style="stop-color:rgb(78.431373%,13.333333%,100%);stop-opacity:1;"/>
</linearGradient>
<linearGradient id="linear10" gradientUnits="userSpaceOnUse" x1="28" y1="7.5" x2="28" y2="56.684" spreadMethod="reflect" gradientTransform="matrix(1.5625,0,0,1.5625,0,0)">
<stop offset="0" style="stop-color:rgb(10.196078%,42.745098%,100%);stop-opacity:1;"/>
<stop offset="1" style="stop-color:rgb(78.431373%,13.333333%,100%);stop-opacity:1;"/>
</linearGradient>
<linearGradient id="linear11" gradientUnits="userSpaceOnUse" x1="50" y1="7.5" x2="50" y2="56.684" spreadMethod="reflect" gradientTransform="matrix(1.5625,0,0,1.5625,0,0)">
<stop offset="0" style="stop-color:rgb(10.196078%,42.745098%,100%);stop-opacity:1;"/>
<stop offset="1" style="stop-color:rgb(78.431373%,13.333333%,100%);stop-opacity:1;"/>
</linearGradient>
<linearGradient id="linear12" gradientUnits="userSpaceOnUse" x1="42" y1="7.5" x2="42" y2="56.684" spreadMethod="reflect" gradientTransform="matrix(1.5625,0,0,1.5625,0,0)">
<stop offset="0" style="stop-color:rgb(10.196078%,42.745098%,100%);stop-opacity:1;"/>
<stop offset="1" style="stop-color:rgb(78.431373%,13.333333%,100%);stop-opacity:1;"/>
</linearGradient>
</defs>
<g id="surface47356">
<path style=" stroke:none;fill-rule:nonzero;fill:url(#linear0);" d="M 17.1875 38.28125 C 15.894531 38.28125 14.84375 39.332031 14.84375 40.625 C 14.84375 41.917969 15.894531 42.96875 17.1875 42.96875 C 18.480469 42.96875 19.53125 41.917969 19.53125 40.625 C 19.53125 39.332031 18.480469 38.28125 17.1875 38.28125 Z M 17.1875 38.28125 "/>
<path style=" stroke:none;fill-rule:nonzero;fill:url(#linear1);" d="M 17.1875 47.65625 C 15.894531 47.65625 14.84375 48.707031 14.84375 50 C 14.84375 51.292969 15.894531 52.34375 17.1875 52.34375 C 18.480469 52.34375 19.53125 51.292969 19.53125 50 C 19.53125 48.707031 18.480469 47.65625 17.1875 47.65625 Z M 17.1875 47.65625 "/>
<path style=" stroke:none;fill-rule:nonzero;fill:url(#linear2);" d="M 17.1875 57.03125 C 15.894531 57.03125 14.84375 58.082031 14.84375 59.375 C 14.84375 60.667969 15.894531 61.71875 17.1875 61.71875 C 18.480469 61.71875 19.53125 60.667969 19.53125 59.375 C 19.53125 58.082031 18.480469 57.03125 17.1875 57.03125 Z M 17.1875 57.03125 "/>
<path style=" stroke:none;fill-rule:nonzero;fill:url(#linear3);" d="M 76.5625 56.328125 L 76.5625 25 C 76.5625 22.414062 74.460938 20.3125 71.875 20.3125 L 48.375 20.3125 C 47.898438 20.3125 47.457031 20.101562 47.160156 19.726562 L 42.785156 14.261719 C 41.890625 13.140625 40.554688 12.5 39.117188 12.5 L 14.070312 12.5 C 11.480469 12.5 9.375 14.605469 9.375 17.195312 L 9.375 68.75 C 9.375 71.335938 11.476562 73.4375 14.0625 73.4375 L 53.203125 73.4375 C 53.992188 81.320312 60.664062 87.5 68.75 87.5 L 75 87.5 C 83.617188 87.5 90.625 80.492188 90.625 71.875 C 90.625 63.789062 84.445312 57.117188 76.5625 56.328125 Z M 61.984375 57.8125 L 54.6875 57.8125 L 54.6875 60.9375 L 57.609375 60.9375 C 55.183594 63.410156 53.566406 66.675781 53.203125 70.3125 L 25 70.3125 L 25 29.6875 L 73.4375 29.6875 L 73.4375 56.25 L 68.75 56.25 C 66.324219 56.25 64.035156 56.820312 61.984375 57.8125 Z M 40.34375 16.214844 L 43.625 20.3125 L 34.3125 20.3125 C 33.835938 20.3125 33.394531 20.101562 33.097656 19.726562 L 29.8125 15.625 L 39.117188 15.625 C 39.601562 15.625 40.046875 15.839844 40.34375 16.214844 Z M 12.5 17.195312 C 12.5 16.328125 13.203125 15.625 14.070312 15.625 L 25.054688 15.625 C 25.539062 15.625 25.984375 15.839844 26.28125 16.214844 L 30.65625 21.679688 C 31.546875 22.796875 32.878906 23.4375 34.3125 23.4375 L 71.875 23.4375 C 72.738281 23.4375 73.4375 24.136719 73.4375 25 L 73.4375 26.5625 L 12.5 26.5625 Z M 12.5 68.75 L 12.5 29.6875 L 21.875 29.6875 L 21.875 70.3125 L 14.0625 70.3125 C 13.199219 70.3125 12.5 69.613281 12.5 68.75 Z M 75 84.375 L 68.75 84.375 C 61.859375 84.375 56.25 78.765625 56.25 71.875 C 56.25 64.984375 61.859375 59.375 68.75 59.375 L 75 59.375 C 81.890625 59.375 87.5 64.984375 87.5 71.875 C 87.5 78.765625 81.890625 84.375 75 84.375 Z M 75 84.375 "/>
<path style=" stroke:none;fill-rule:nonzero;fill:url(#linear4);" d="M 35.9375 39.0625 L 51.5625 39.0625 L 51.5625 42.1875 L 35.9375 42.1875 Z M 35.9375 39.0625 "/>
<path style=" stroke:none;fill-rule:nonzero;fill:url(#linear5);" d="M 54.6875 39.0625 L 70.3125 39.0625 L 70.3125 42.1875 L 54.6875 42.1875 Z M 54.6875 39.0625 "/>
<path style=" stroke:none;fill-rule:nonzero;fill:url(#linear6);" d="M 60.9375 45.3125 L 70.3125 45.3125 L 70.3125 48.4375 L 60.9375 48.4375 Z M 60.9375 45.3125 "/>
<path style=" stroke:none;fill-rule:nonzero;fill:url(#linear7);" d="M 48.4375 45.3125 L 57.8125 45.3125 L 57.8125 48.4375 L 48.4375 48.4375 Z M 48.4375 45.3125 "/>
<path style=" stroke:none;fill-rule:nonzero;fill:url(#linear8);" d="M 60.9375 51.5625 L 70.3125 51.5625 L 70.3125 54.6875 L 60.9375 54.6875 Z M 60.9375 51.5625 "/>
<path style=" stroke:none;fill-rule:nonzero;fill:url(#linear9);" d="M 48.4375 51.5625 L 57.8125 51.5625 L 57.8125 54.6875 L 48.4375 54.6875 Z M 48.4375 51.5625 "/>
<path style=" stroke:none;fill-rule:nonzero;fill:url(#linear10);" d="M 35.9375 57.8125 L 51.5625 57.8125 L 51.5625 60.9375 L 35.9375 60.9375 Z M 35.9375 57.8125 "/>
<path style=" stroke:none;fill-rule:nonzero;fill:url(#linear11);" d="M 79.6875 68.75 C 79.6875 66.164062 77.585938 64.0625 75 64.0625 L 73.4375 64.0625 L 73.4375 67.1875 L 75 67.1875 C 75.863281 67.1875 76.5625 67.886719 76.5625 68.75 C 76.5625 69.949219 77.015625 71.046875 77.757812 71.875 C 77.015625 72.703125 76.5625 73.800781 76.5625 75 C 76.5625 75.863281 75.863281 76.5625 75 76.5625 L 73.4375 76.5625 L 73.4375 79.6875 L 75 79.6875 C 77.585938 79.6875 79.6875 77.585938 79.6875 75 C 79.6875 74.136719 80.386719 73.4375 81.25 73.4375 L 82.8125 73.4375 L 82.8125 70.3125 L 81.25 70.3125 C 80.386719 70.3125 79.6875 69.613281 79.6875 68.75 Z M 79.6875 68.75 "/>
<path style=" stroke:none;fill-rule:nonzero;fill:url(#linear12);" d="M 64.0625 68.75 C 64.0625 69.613281 63.363281 70.3125 62.5 70.3125 L 60.9375 70.3125 L 60.9375 73.4375 L 62.5 73.4375 C 63.363281 73.4375 64.0625 74.136719 64.0625 75 C 64.0625 77.585938 66.164062 79.6875 68.75 79.6875 L 70.3125 79.6875 L 70.3125 76.5625 L 68.75 76.5625 C 67.886719 76.5625 67.1875 75.863281 67.1875 75 C 67.1875 73.800781 66.734375 72.703125 65.992188 71.875 C 66.734375 71.046875 67.1875 69.949219 67.1875 68.75 C 67.1875 67.886719 67.886719 67.1875 68.75 67.1875 L 70.3125 67.1875 L 70.3125 64.0625 L 68.75 64.0625 C 66.164062 64.0625 64.0625 66.164062 64.0625 68.75 Z M 64.0625 68.75 "/>
</g>
</svg>
