<?xml version="1.0" encoding="UTF-8"?>
<svg xmlns="http://www.w3.org/2000/svg" xmlns:xlink="http://www.w3.org/1999/xlink" width="100px" height="100px" viewBox="0 0 100 100" version="1.1">
<defs>
<linearGradient id="linear0" gradientUnits="userSpaceOnUse" x1="26" y1="630.833" x2="26" y2="619.332" spreadMethod="reflect" gradientTransform="matrix(1.5625,0,0,-1.5625,0,1021.875)">
<stop offset="0" style="stop-color:rgb(42.745098%,78.039216%,100%);stop-opacity:1;"/>
<stop offset="1" style="stop-color:rgb(90.196078%,67.058824%,100%);stop-opacity:1;"/>
</linearGradient>
<linearGradient id="linear1" gradientUnits="userSpaceOnUse" x1="26" y1="647.5" x2="26" y2="596.439" spreadMethod="reflect" gradientTransform="matrix(1.5625,0,0,-1.5625,0,1021.875)">
<stop offset="0" style="stop-color:rgb(10.196078%,42.745098%,100%);stop-opacity:1;"/>
<stop offset="1" style="stop-color:rgb(78.431373%,13.333333%,100%);stop-opacity:1;"/>
</linearGradient>
<linearGradient id="linear2" gradientUnits="userSpaceOnUse" x1="32" y1="8.915" x2="32" y2="55.387" spreadMethod="reflect" gradientTransform="matrix(1.5625,0,0,1.5625,0,0)">
<stop offset="0" style="stop-color:rgb(10.196078%,42.745098%,100%);stop-opacity:1;"/>
<stop offset="1" style="stop-color:rgb(78.431373%,13.333333%,100%);stop-opacity:1;"/>
</linearGradient>
</defs>
<g id="surface90874">
<path style=" stroke:none;fill-rule:nonzero;fill:url(#linear0);" d="M 23.566406 40.253906 L 38.605469 52.972656 C 39.769531 53.960938 41.480469 53.960938 42.652344 52.972656 L 57.683594 40.253906 C 58.796875 39.3125 58.128906 37.5 56.671875 37.5 L 24.578125 37.5 C 23.121094 37.5 22.453125 39.3125 23.566406 40.253906 Z M 23.566406 40.253906 "/>
<path style=" stroke:none;fill-rule:nonzero;fill:url(#linear1);" d="M 28.125 76.5625 L 53.125 76.5625 L 53.125 79.6875 L 28.125 79.6875 Z M 28.125 76.5625 "/>
<path style=" stroke:none;fill-rule:nonzero;fill:url(#linear2);" d="M 75 14.0625 C 65.414062 14.0625 57.378906 20.742188 55.253906 29.6875 L 12.5 29.6875 C 8.191406 29.6875 4.6875 33.191406 4.6875 37.5 L 4.6875 78.125 C 4.6875 82.433594 8.191406 85.9375 12.5 85.9375 L 68.75 85.9375 C 73.058594 85.9375 76.5625 82.433594 76.5625 78.125 L 76.5625 54.6875 L 79.6875 54.6875 L 79.6875 51.5625 L 75 51.5625 C 65.523438 51.5625 57.8125 43.851562 57.8125 34.375 C 57.8125 24.898438 65.523438 17.1875 75 17.1875 C 84.476562 17.1875 92.1875 24.898438 92.1875 34.375 L 92.1875 39.0625 C 92.1875 40.785156 90.785156 42.1875 89.0625 42.1875 C 87.339844 42.1875 85.9375 40.785156 85.9375 39.0625 L 85.9375 34.375 C 85.9375 28.34375 81.03125 23.4375 75 23.4375 C 68.96875 23.4375 64.0625 28.34375 64.0625 34.375 C 64.0625 40.40625 68.96875 45.3125 75 45.3125 C 78.320312 45.3125 81.292969 43.824219 83.300781 41.480469 C 84.246094 43.726562 86.476562 45.3125 89.0625 45.3125 C 92.511719 45.3125 95.3125 42.511719 95.3125 39.0625 L 95.3125 34.375 C 95.3125 23.175781 86.199219 14.0625 75 14.0625 Z M 7.8125 37.671875 L 26.695312 53.125 L 7.8125 68.578125 Z M 73.4375 78.125 C 73.4375 80.707031 71.332031 82.8125 68.75 82.8125 L 12.5 82.8125 C 9.917969 82.8125 7.8125 80.707031 7.8125 78.125 L 7.8125 72.613281 L 29.167969 55.144531 L 35.679688 60.472656 C 37.109375 61.644531 38.867188 62.230469 40.625 62.230469 C 42.382812 62.230469 44.140625 61.644531 45.570312 60.472656 L 52.085938 55.144531 L 73.4375 72.613281 Z M 73.4375 54.609375 L 73.4375 68.578125 L 54.554688 53.125 L 60.207031 48.25 C 63.578125 51.84375 68.230469 54.210938 73.4375 54.609375 Z M 58.226562 45.808594 L 43.59375 58.050781 C 41.871094 59.460938 39.375 59.460938 37.652344 58.050781 L 8.90625 34.527344 C 9.765625 33.492188 11.046875 32.8125 12.5 32.8125 L 54.765625 32.8125 C 54.726562 33.328125 54.6875 33.847656 54.6875 34.375 C 54.6875 38.613281 55.996094 42.546875 58.226562 45.808594 Z M 75 42.1875 C 70.691406 42.1875 67.1875 38.683594 67.1875 34.375 C 67.1875 30.066406 70.691406 26.5625 75 26.5625 C 79.308594 26.5625 82.8125 30.066406 82.8125 34.375 C 82.8125 38.683594 79.308594 42.1875 75 42.1875 Z M 75 42.1875 "/>
</g>
</svg>
