<?xml version="1.0" encoding="UTF-8"?>
<svg xmlns="http://www.w3.org/2000/svg" xmlns:xlink="http://www.w3.org/1999/xlink" width="100px" height="100px" viewBox="0 0 100 100" version="1.1">
<defs>
<linearGradient id="linear0" gradientUnits="userSpaceOnUse" x1="30.999" y1="16" x2="30.999" y2="55.342" spreadMethod="reflect" gradientTransform="matrix(1.5625,0,0,1.5625,0,0)">
<stop offset="0" style="stop-color:rgb(42.745098%,78.039216%,100%);stop-opacity:1;"/>
<stop offset="1" style="stop-color:rgb(90.196078%,67.058824%,100%);stop-opacity:1;"/>
</linearGradient>
<linearGradient id="linear1" gradientUnits="userSpaceOnUse" x1="32" y1="5" x2="32" y2="59.167" spreadMethod="reflect" gradientTransform="matrix(1.5625,0,0,1.5625,0,0)">
<stop offset="0" style="stop-color:rgb(10.196078%,42.745098%,100%);stop-opacity:1;"/>
<stop offset="1" style="stop-color:rgb(78.431373%,13.333333%,100%);stop-opacity:1;"/>
</linearGradient>
</defs>
<g id="surface92080">
<path style=" stroke:none;fill-rule:nonzero;fill:url(#linear0);" d="M 39.074219 87.511719 C 39.070312 86.9375 39.066406 84.445312 39.0625 82.113281 L 39.054688 79.691406 C 28.542969 81.121094 25.996094 73.785156 25.96875 73.707031 C 24.507812 70.007812 22.515625 68.949219 22.429688 68.90625 L 22.234375 68.792969 C 21.511719 68.300781 19.59375 66.984375 20.136719 65.257812 C 20.628906 63.699219 22.539062 63.539062 23.40625 63.566406 C 28.207031 63.902344 30.640625 68.21875 30.738281 68.402344 C 33.191406 72.605469 36.933594 72.171875 39.347656 71.285156 C 39.570312 70.210938 39.921875 69.222656 40.375 68.351562 C 32.632812 66.976562 23.859375 62.859375 23.859375 47.875 C 23.859375 43.761719 25.140625 40.125 27.671875 37.046875 C 27.109375 35.164062 26.464844 31.320312 28.371094 26.476562 L 28.640625 25.789062 L 29.347656 25.5625 C 30 25.347656 33.546875 24.585938 40.847656 29.363281 C 43.859375 28.59375 47.046875 28.195312 50.335938 28.179688 C 53.640625 28.195312 56.835938 28.59375 59.851562 29.363281 C 67.144531 24.585938 70.6875 25.355469 71.339844 25.5625 L 72.042969 25.789062 L 72.316406 26.476562 C 74.230469 31.316406 73.585938 35.164062 73.019531 37.046875 C 75.546875 40.117188 76.828125 43.753906 76.828125 47.875 C 76.828125 62.859375 68.046875 66.96875 60.285156 68.324219 C 61.164062 69.988281 61.640625 72.078125 61.640625 74.382812 C 61.640625 77.011719 61.632812 85.640625 61.617188 87.511719 L 58.492188 87.488281 C 58.507812 85.621094 58.515625 77.007812 58.515625 74.382812 C 58.515625 70.566406 57.042969 68.878906 56.40625 68.328125 L 53.703125 65.988281 L 57.257812 65.59375 C 65.390625 64.691406 73.703125 61.875 73.703125 47.875 C 73.703125 44.234375 72.488281 41.058594 70.09375 38.441406 L 69.421875 37.710938 L 69.800781 36.792969 C 70.058594 36.164062 71.195312 32.976562 69.734375 28.523438 C 68.546875 28.59375 65.71875 29.152344 61.007812 32.347656 L 60.40625 32.753906 L 59.710938 32.5625 C 56.800781 31.75 53.558594 31.316406 50.335938 31.300781 C 47.128906 31.316406 43.890625 31.75 40.984375 32.5625 L 40.289062 32.753906 L 39.691406 32.347656 C 34.976562 29.15625 32.140625 28.59375 30.953125 28.523438 C 29.492188 32.976562 30.628906 36.164062 30.890625 36.792969 L 31.265625 37.710938 L 30.597656 38.441406 C 28.195312 41.070312 26.980469 44.242188 26.980469 47.875 C 26.980469 61.871094 35.277344 64.703125 43.394531 65.625 L 46.914062 66.023438 L 44.242188 68.351562 C 43.664062 68.859375 42.632812 70.089844 42.285156 72.613281 L 42.167969 73.472656 L 41.375 73.828125 C 39.3125 74.75 32.253906 77.203125 28.019531 69.945312 C 27.996094 69.90625 27.171875 68.46875 25.671875 67.511719 C 26.683594 68.507812 27.914062 70.125 28.90625 72.648438 C 29.007812 72.945312 31.023438 78.304688 40.28125 76.300781 L 42.164062 75.890625 L 42.183594 82.109375 C 42.1875 84.429688 42.191406 86.914062 42.195312 87.488281 Z M 39.074219 87.511719 "/>
<path style=" stroke:none;fill-rule:nonzero;fill:url(#linear1);" d="M 50 90.625 C 27.597656 90.625 9.375 72.402344 9.375 50 C 9.375 27.597656 27.597656 9.375 50 9.375 C 72.402344 9.375 90.625 27.597656 90.625 50 C 90.625 72.402344 72.402344 90.625 50 90.625 Z M 50 12.5 C 29.324219 12.5 12.5 29.324219 12.5 50 C 12.5 70.675781 29.324219 87.5 50 87.5 C 70.675781 87.5 87.5 70.675781 87.5 50 C 87.5 29.324219 70.675781 12.5 50 12.5 Z M 50 12.5 "/>
</g>
</svg>
